<svg width="25" height="25" viewBox="0 0 25 25" fill="none" xmlns="http://www.w3.org/2000/svg">
<g id="Experience">
<path id="Vector" d="M15.625 16.9286C15.625 17.3627 15.2754 17.7143 14.8438 17.7143H10.1562C9.72461 17.7143 9.375 17.3627 9.375 16.9286V14.5714H0V21.6429C0 22.9 1.09375 24 2.34375 24H22.6562C23.9062 24 25 22.9 25 21.6429V14.5714H15.625V16.9286ZM22.6562 6.71429H18.75V4.35714C18.75 3.1 17.6562 2 16.4062 2H8.59375C7.34375 2 6.25 3.1 6.25 4.35714V6.71429H2.34375C1.09375 6.71429 0 7.81429 0 9.07143V13H25V9.07143C25 7.81429 23.9062 6.71429 22.6562 6.71429ZM15.625 6.71429H9.375V5.14286H15.625V6.71429Z" fill="#FFB800"/>
</g>
</svg>
