<svg width="25" height="24" viewBox="0 0 25 24" fill="none" xmlns="http://www.w3.org/2000/svg">
<path id="Vector" d="M8.49121 19.0137C8.49121 19.1113 8.37891 19.1895 8.2373 19.1895C8.07617 19.2041 7.96387 19.126 7.96387 19.0137C7.96387 18.916 8.07617 18.8379 8.21777 18.8379C8.36426 18.8232 8.49121 18.9014 8.49121 19.0137ZM6.97266 18.7939C6.93848 18.8916 7.03613 19.0039 7.18262 19.0332C7.30957 19.082 7.45605 19.0332 7.48535 18.9355C7.51465 18.8379 7.42188 18.7256 7.27539 18.6816C7.14844 18.6475 7.00684 18.6963 6.97266 18.7939ZM9.13086 18.7109C8.98926 18.7451 8.8916 18.8379 8.90625 18.9502C8.9209 19.0479 9.04785 19.1113 9.19434 19.0771C9.33594 19.043 9.43359 18.9502 9.41895 18.8525C9.4043 18.7598 9.27246 18.6963 9.13086 18.7109ZM12.3438 0C5.57129 0 0.390625 5.1416 0.390625 11.9141C0.390625 17.3291 3.79883 21.9629 8.66699 23.5938C9.29199 23.7061 9.51172 23.3203 9.51172 23.0029C9.51172 22.7002 9.49707 21.0303 9.49707 20.0049C9.49707 20.0049 6.0791 20.7373 5.36133 18.5498C5.36133 18.5498 4.80469 17.1289 4.00391 16.7627C4.00391 16.7627 2.88574 15.9961 4.08203 16.0107C4.08203 16.0107 5.29785 16.1084 5.9668 17.2705C7.03613 19.1553 8.82812 18.6133 9.52637 18.291C9.63867 17.5098 9.95605 16.9678 10.3076 16.6455C7.57812 16.3428 4.82422 15.9473 4.82422 11.25C4.82422 9.90723 5.19531 9.2334 5.97656 8.37402C5.84961 8.05664 5.43457 6.74805 6.10352 5.05859C7.12402 4.74121 9.47266 6.37695 9.47266 6.37695C10.4492 6.10352 11.499 5.96191 12.5391 5.96191C13.5791 5.96191 14.6289 6.10352 15.6055 6.37695C15.6055 6.37695 17.9541 4.73633 18.9746 5.05859C19.6436 6.75293 19.2285 8.05664 19.1016 8.37402C19.8828 9.23828 20.3613 9.91211 20.3613 11.25C20.3613 15.9619 17.4854 16.3379 14.7559 16.6455C15.2051 17.0312 15.5859 17.7637 15.5859 18.9111C15.5859 20.5566 15.5713 22.5928 15.5713 22.9932C15.5713 23.3105 15.7959 23.6963 16.416 23.584C21.2988 21.9629 24.6094 17.3291 24.6094 11.9141C24.6094 5.1416 19.1162 0 12.3438 0ZM5.13672 16.8408C5.07324 16.8896 5.08789 17.002 5.1709 17.0947C5.24902 17.1729 5.36133 17.207 5.4248 17.1436C5.48828 17.0947 5.47363 16.9824 5.39062 16.8896C5.3125 16.8115 5.2002 16.7773 5.13672 16.8408ZM4.60938 16.4453C4.5752 16.5088 4.62402 16.5869 4.72168 16.6357C4.7998 16.6846 4.89746 16.6699 4.93164 16.6016C4.96582 16.5381 4.91699 16.46 4.81934 16.4111C4.72168 16.3818 4.64355 16.3965 4.60938 16.4453ZM6.19141 18.1836C6.11328 18.2471 6.14258 18.3936 6.25488 18.4863C6.36719 18.5986 6.50879 18.6133 6.57227 18.5352C6.63574 18.4717 6.60645 18.3252 6.50879 18.2324C6.40137 18.1201 6.25488 18.1055 6.19141 18.1836ZM5.63477 17.4658C5.55664 17.5146 5.55664 17.6416 5.63477 17.7539C5.71289 17.8662 5.84473 17.915 5.9082 17.8662C5.98633 17.8027 5.98633 17.6758 5.9082 17.5635C5.83984 17.4512 5.71289 17.4023 5.63477 17.4658Z" fill="#FFB800"/>
</svg>
