<svg width="25" height="25" viewBox="0 0 25 25" fill="none" xmlns="http://www.w3.org/2000/svg">
<g id="project-diagram">
<path id="Vector" d="M15 15H10C9.30977 15 8.75 15.5598 8.75 16.25V21.25C8.75 21.9402 9.30977 22.5 10 22.5H15C15.6902 22.5 16.25 21.9402 16.25 21.25V16.25C16.25 15.5598 15.6902 15 15 15ZM7.5 3.75C7.5 3.05977 6.94023 2.5 6.25 2.5H1.25C0.559766 2.5 0 3.05977 0 3.75V8.75C0 9.44023 0.559766 10 1.25 10H4.98906L7.84688 15.0016C8.28047 14.257 9.07812 13.75 10 13.75H10.0109L7.5 9.35586V7.5H16.25V5H7.5V3.75ZM23.75 2.5H18.75C18.0598 2.5 17.5 3.05977 17.5 3.75V8.75C17.5 9.44023 18.0598 10 18.75 10H23.75C24.4402 10 25 9.44023 25 8.75V3.75C25 3.05977 24.4402 2.5 23.75 2.5Z" fill="#FFB800"/>
</g>
</svg>
