<svg width="23" height="23" viewBox="0 0 23 23" fill="none" xmlns="http://www.w3.org/2000/svg">
<path id="Vector" d="M20.0938 0.5625H2.90625C1.6123 0.5625 0.5625 1.6123 0.5625 2.90625V20.0938C0.5625 21.3877 1.6123 22.4375 2.90625 22.4375H20.0938C21.3877 22.4375 22.4375 21.3877 22.4375 20.0938V2.90625C22.4375 1.6123 21.3877 0.5625 20.0938 0.5625ZM17.7061 8.31641C17.7158 8.45312 17.7158 8.59473 17.7158 8.73145C17.7158 12.9648 14.4932 17.8428 8.60449 17.8428C6.78809 17.8428 5.10352 17.3154 3.6875 16.4072C3.94629 16.4365 4.19531 16.4463 4.45898 16.4463C5.95801 16.4463 7.33496 15.9385 8.43359 15.0791C7.02734 15.0498 5.8457 14.127 5.44043 12.8574C5.93359 12.9307 6.37793 12.9307 6.88574 12.7988C5.4209 12.501 4.32227 11.2119 4.32227 9.6543V9.61523C4.74707 9.85449 5.24512 10.001 5.76758 10.0205C5.32833 9.72834 4.96825 9.33197 4.71947 8.86677C4.47068 8.40158 4.34093 7.88203 4.3418 7.35449C4.3418 6.75879 4.49805 6.21191 4.77637 5.73828C6.35352 7.68164 8.72168 8.95117 11.3779 9.08789C10.9238 6.91504 12.5498 5.15234 14.5029 5.15234C15.4258 5.15234 16.2559 5.53809 16.8418 6.16309C17.5645 6.02637 18.2578 5.75781 18.873 5.3916C18.6338 6.13379 18.1309 6.75879 17.4668 7.1543C18.1113 7.08594 18.7363 6.90527 19.3125 6.65625C18.8779 7.2959 18.3311 7.8623 17.7061 8.31641Z" fill="#FFB800"/>
</svg>
